<svg id="Capa_1" enable-background="new 0 0 512 512" height="512" viewBox="0 0 512 512" width="512" xmlns="http://www.w3.org/2000/svg"><g><path d="m224.883 433.047-30-24.229v-63.749h30z" fill="#ef0671"/><path d="m287.117 433.047 30-24.229v-63.749h-30z" fill="#a20589"/><path d="m213.155.144c-80.23 3.347-144.249 69.437-144.249 150.49 0 34.864 12.094 68.649 34.219 95.594l91.758 111.745h26.332c-.001 0-39.67-337.631-8.06-357.829z" fill="#f7e39b"/><path d="m298.845.144c80.23 3.347 144.249 69.437 144.249 150.49 0 34.864-12.094 68.649-34.219 95.594l-91.758 111.745h-26.332c.001 0 39.67-337.631 8.06-357.829z" fill="#fb6d4b"/><g><path d="m219.541 0c-2.14 0-4.267.056-6.386.144-31.61 20.198-54.503 79.417-54.503 149.339 0 36.281 6.292 71.438 17.804 99.477l44.757 109.013h34.787l40.911-184.167-40.911-173.806z" fill="#f2d05c"/><path d="m353.347 149.483c0-69.922-22.892-129.141-54.503-149.339-2.118-.088-4.244-.144-6.385-.144h-36.459v357.973h34.786l44.757-109.013c11.512-28.039 17.804-63.197 17.804-99.477z" fill="#f79f5e"/></g><g><path d="m194.883 408.818v54.662c0 26.797 21.723 48.52 48.52 48.52h12.597l34.786-55.024-34.786-48.158z" fill="#5f05a7"/></g><path d="m256 408.818v103.182h12.597c26.797 0 48.52-21.723 48.52-48.52v-54.662z" fill="#2d0390"/></g></svg>